<svg class="diagram-root" style="background: #f5f6f6" xmlns="http://www.w3.org/2000/svg" xmlns:xlink="http://www.w3.org/1999/xlink"><style>.diagram-root { font-family: "Helvetica Neue", sans-serif; font-size: 12px; } .t { overflow: visible; } .t-bg { y: 40; fill: #fff;   } .th { fill: #005aa0;   } .tht { fill: #fff; font-size: 14px;  } .tf { fill: #323c46; overflow: visible; } .tf.pk { fill: #005aa0; font-weight: bold; } .tf.fk { font-weight: bold; } .ty { fill: #adb1b5; font-weight: normal; text-anchor: end; } .r { fill: transparent; stroke: #c3c3c3; stroke-width: 1; } .l { stroke: 1; } .i { fill: #c2c7ce; stroke: #c2c7ce; } .i.ix { fill: #afb3b6; stroke: #000; } .fa { fill: transparent; overflow: visible; } .fa .bg.hover { fill: #f7f7f7; } .c { cy: 12; r: 4; stroke: #d2d2dc; fill: #d2d2dc; } .hr { fill: transparent; stroke: #323c46; stroke-opacity: 0.035; stroke-width: 13; } .dc { stroke: #fa5a3c; fill: #fa5a3c; } .x { stroke: white; stroke-width: 1; } .hl .th { fill: #1b9bff; } .hl .tht {  } .fhl .bg { fill: #e7f4ff; } .fhls .bg {  } .r.hl { stroke: #1b9bff; } .dim { opacity: 0.25; }</style><g class="drawing-wrapper" transform="translate(-34, -225) scale(1,1)"><g class="rs"><path d="M 331 338 m -1, 0 a 1,1 0 1,0 2,0 a 1,1 0 1,0 -2,0 M 331 338 m -0.5, 0 a 0.5,0.5 0 1,0 1,0 a 0.5,0.5 0 1,0 -1,0  M331 338 L331 338 319 338 M 331 344 m -1, 0 a 1,1 0 1,0 2,0 a 1,1 0 1,0 -2,0 M 331 344 m -0.5, 0 a 0.5,0.5 0 1,0 1,0 a 0.5,0.5 0 1,0 -1,0  M331 344 L331 344 324 338 331 332 M 331 332 m -1, 0 a 1,1 0 1,0 2,0 a 1,1 0 1,0 -2,0 M 331 332 m -0.5, 0 a 0.5,0.5 0 1,0 1,0 a 0.5,0.5 0 1,0 -1,0  M319 338 Q 298.61 338, 278.21 336.5 T 237.42 335 M 225.42 335 m -1, 0 a 1,1 0 1,0 2,0 a 1,1 0 1,0 -2,0 M 225.42 335 m -0.5, 0 a 0.5,0.5 0 1,0 1,0 a 0.5,0.5 0 1,0 -1,0  M225.42 335 L225.42 335 237.42 335 M231.42 341 L231.42 341 231.42 329" id="h1588632572" class="r"></path><path d="M 591 312 m -1, 0 a 1,1 0 1,0 2,0 a 1,1 0 1,0 -2,0 M 591 312 m -0.5, 0 a 0.5,0.5 0 1,0 1,0 a 0.5,0.5 0 1,0 -1,0  M591 312 L591 312 579 312 M 591 318 m -1, 0 a 1,1 0 1,0 2,0 a 1,1 0 1,0 -2,0 M 591 318 m -0.5, 0 a 0.5,0.5 0 1,0 1,0 a 0.5,0.5 0 1,0 -1,0  M591 318 L591 318 584 312 591 306 M 591 306 m -1, 0 a 1,1 0 1,0 2,0 a 1,1 0 1,0 -2,0 M 591 306 m -0.5, 0 a 0.5,0.5 0 1,0 1,0 a 0.5,0.5 0 1,0 -1,0  M579 312 Q 558.02 312, 537.04 312.5 T 495.08 313 M 483.08 313 m -1, 0 a 1,1 0 1,0 2,0 a 1,1 0 1,0 -2,0 M 483.08 313 m -0.5, 0 a 0.5,0.5 0 1,0 1,0 a 0.5,0.5 0 1,0 -1,0  M483.08 313 L483.08 313 495.08 313 M 483.08 319 m -1, 0 a 1,1 0 1,0 2,0 a 1,1 0 1,0 -2,0 M 483.08 319 m -0.5, 0 a 0.5,0.5 0 1,0 1,0 a 0.5,0.5 0 1,0 -1,0  M483.08 319 L483.08 319 490.08 313 483.08 307 M 483.08 307 m -1, 0 a 1,1 0 1,0 2,0 a 1,1 0 1,0 -2,0 M 483.08 307 m -0.5, 0 a 0.5,0.5 0 1,0 1,0 a 0.5,0.5 0 1,0 -1,0 " id="h136771586" class="r"></path><path d="M 714.37 337 m -1, 0 a 1,1 0 1,0 2,0 a 1,1 0 1,0 -2,0 M 714.37 337 m -0.5, 0 a 0.5,0.5 0 1,0 1,0 a 0.5,0.5 0 1,0 -1,0  M714.37 337 L714.37 337 726.37 337 M720.37 343 L720.37 343 720.37 331 M726.37 337 Q 752.53 337, 778.69 343 T 831 349 M 843 349 m -1, 0 a 1,1 0 1,0 2,0 a 1,1 0 1,0 -2,0 M 843 349 m -0.5, 0 a 0.5,0.5 0 1,0 1,0 a 0.5,0.5 0 1,0 -1,0  M843 349 L843 349 831 349 M 843 355 m -1, 0 a 1,1 0 1,0 2,0 a 1,1 0 1,0 -2,0 M 843 355 m -0.5, 0 a 0.5,0.5 0 1,0 1,0 a 0.5,0.5 0 1,0 -1,0  M843 355 L843 355 836 349 843 343 M 843 343 m -1, 0 a 1,1 0 1,0 2,0 a 1,1 0 1,0 -2,0 M 843 343 m -0.5, 0 a 0.5,0.5 0 1,0 1,0 a 0.5,0.5 0 1,0 -1,0 " id="h2613065774" class="r"></path><path d="M 714.37 362 m -1, 0 a 1,1 0 1,0 2,0 a 1,1 0 1,0 -2,0 M 714.37 362 m -0.5, 0 a 0.5,0.5 0 1,0 1,0 a 0.5,0.5 0 1,0 -1,0  M714.37 362 L714.37 362 726.37 362 M720.37 368 L720.37 368 720.37 356 M726.37 362 Q 752.53 362, 778.69 355.5 T 831 349 M 843 349 m -1, 0 a 1,1 0 1,0 2,0 a 1,1 0 1,0 -2,0 M 843 349 m -0.5, 0 a 0.5,0.5 0 1,0 1,0 a 0.5,0.5 0 1,0 -1,0  M843 349 L843 349 831 349 M 843 355 m -1, 0 a 1,1 0 1,0 2,0 a 1,1 0 1,0 -2,0 M 843 355 m -0.5, 0 a 0.5,0.5 0 1,0 1,0 a 0.5,0.5 0 1,0 -1,0  M843 355 L843 355 836 349 843 343 M 843 343 m -1, 0 a 1,1 0 1,0 2,0 a 1,1 0 1,0 -2,0 M 843 343 m -0.5, 0 a 0.5,0.5 0 1,0 1,0 a 0.5,0.5 0 1,0 -1,0 " id="h3501221809" class="r"></path></g><g class="hrs"></g><g class="ts"><svg width="169.42" height="350" x="56" y="278" id="h1604603529" class="t"><rect height="40" width="169.42" class="th"></rect><text x="13" y="25" class="tht">Block</text><rect height="310" width="169.42" class="t-bg"></rect><text x="13" y="61" class="tf pk">number<tspan x="156.42" class="ty">int</tspan></text><path d="M7,14A2,2 0 0,1 5,12A2,2 0 0,1 7,10A2,2 0 0,1 9,12A2,2 0 0,1 7,14M12.65,10C11.83,7.67 9.61,6 7, 6A6, 6 0 0, 0 1, 12A6, 6 0 0, 0 7, 18C9.61, 18 11.83, 16.33 12.65, 14H17V18H21V14H23V10H12.65Z" class="i pk" transform="translate(123.74617187499999, 48) scale(0.65)"></path><text x="13" y="86" class="tf">hash<tspan x="156.42" class="ty">string</tspan></text><text x="13" y="111" class="tf">size<tspan x="156.42" class="ty">bigint</tspan></text><text x="13" y="136" class="tf">stripped_size<tspan x="156.42" class="ty">bigint</tspan></text><text x="13" y="161" class="tf">weight<tspan x="156.42" class="ty">bigint</tspan></text><text x="13" y="186" class="tf">version<tspan x="156.42" class="ty">bigint</tspan></text><text x="13" y="211" class="tf">merkle_root<tspan x="156.42" class="ty">string</tspan></text><text x="13" y="236" class="tf">timestamp<tspan x="156.42" class="ty">bigint</tspan></text><text x="13" y="261" class="tf">nonce<tspan x="156.42" class="ty">string</tspan></text><text x="13" y="286" class="tf">bits<tspan x="156.42" class="ty">hex_string</tspan></text><text x="13" y="311" class="tf">coinbase_param<tspan x="156.42" class="ty">string</tspan></text><text x="13" y="336" class="tf">transaction_count<tspan x="156.42" class="ty">bigint</tspan></text></svg><svg width="152.08" height="375" x="331" y="256" id="h2618827946" class="t"><rect height="40" width="152.08" class="th"></rect><text x="13" y="25" class="tht">Transaction</text><rect height="335" width="152.08" class="t-bg"></rect><text x="13" y="61" class="tf pk">hash<tspan x="139.08" class="ty">String</tspan></text><path d="M7,14A2,2 0 0,1 5,12A2,2 0 0,1 7,10A2,2 0 0,1 9,12A2,2 0 0,1 7,14M12.65,10C11.83,7.67 9.61,6 7, 6A6, 6 0 0, 0 1, 12A6, 6 0 0, 0 7, 18C9.61, 18 11.83, 16.33 12.65, 14H17V18H21V14H23V10H12.65Z" class="i pk" transform="translate(87.73234375000001, 48) scale(0.65)"></path><text x="13" y="86" class="tf fk">block_number<tspan x="139.08" class="ty">int</tspan></text><text x="13" y="111" class="tf">size<tspan x="139.08" class="ty">bigint</tspan></text><text x="13" y="136" class="tf">virtual_size<tspan x="139.08" class="ty">bigint</tspan></text><text x="13" y="161" class="tf">version<tspan x="139.08" class="ty">bigint</tspan></text><text x="13" y="186" class="tf">lock_time<tspan x="139.08" class="ty">bigint</tspan></text><text x="13" y="211" class="tf">is_coinbase<tspan x="139.08" class="ty">boolean</tspan></text><text x="13" y="236" class="tf">index<tspan x="139.08" class="ty">bigint</tspan></text><text x="13" y="261" class="tf">input_count<tspan x="139.08" class="ty">bigint</tspan></text><text x="13" y="286" class="tf">output_count<tspan x="139.08" class="ty">bigint</tspan></text><text x="13" y="311" class="tf">input_value<tspan x="139.08" class="ty">bigint</tspan></text><text x="13" y="336" class="tf">output_value<tspan x="139.08" class="ty">bigint</tspan></text><text x="13" y="361" class="tf">fee<tspan x="139.08" class="ty">bigint</tspan></text></svg><svg width="123.37" height="125" x="591" y="255" id="h1821664238" class="t"><rect height="40" width="123.37" class="th"></rect><text x="13" y="25" class="tht">TransactionIO</text><rect height="85" width="123.37" class="t-bg"></rect><text x="13" y="61" class="tf pk">hash<tspan x="110.37" class="ty">String</tspan></text><path d="M7,14A2,2 0 0,1 5,12A2,2 0 0,1 7,10A2,2 0 0,1 9,12A2,2 0 0,1 7,14M12.65,10C11.83,7.67 9.61,6 7, 6A6, 6 0 0, 0 1, 12A6, 6 0 0, 0 7, 18C9.61, 18 11.83, 16.33 12.65, 14H17V18H21V14H23V10H12.65Z" class="i pk" transform="translate(59.022343750000005, 48) scale(0.65)"></path><text x="13" y="86" class="tf pk">input</text><path d="M7,14A2,2 0 0,1 5,12A2,2 0 0,1 7,10A2,2 0 0,1 9,12A2,2 0 0,1 7,14M12.65,10C11.83,7.67 9.61,6 7, 6A6, 6 0 0, 0 1, 12A6, 6 0 0, 0 7, 18C9.61, 18 11.83, 16.33 12.65, 14H17V18H21V14H23V10H12.65Z" class="i pk" transform="translate(95.37, 73) scale(0.65)"></path><text x="13" y="111" class="tf pk">output</text><path d="M7,14A2,2 0 0,1 5,12A2,2 0 0,1 7,10A2,2 0 0,1 9,12A2,2 0 0,1 7,14M12.65,10C11.83,7.67 9.61,6 7, 6A6, 6 0 0, 0 1, 12A6, 6 0 0, 0 7, 18C9.61, 18 11.83, 16.33 12.65, 14H17V18H21V14H23V10H12.65Z" class="i pk" transform="translate(95.37, 98) scale(0.65)"></path></svg><svg width="123.37" height="75" x="843" y="292" id="h1446055005" class="t"><rect height="40" width="123.37" class="th"></rect><text x="13" y="25" class="tht">Address</text><rect height="35" width="123.37" class="t-bg"></rect><text x="13" y="61" class="tf pk">hash<tspan x="110.37" class="ty">String</tspan></text><path d="M7,14A2,2 0 0,1 5,12A2,2 0 0,1 7,10A2,2 0 0,1 9,12A2,2 0 0,1 7,14M12.65,10C11.83,7.67 9.61,6 7, 6A6, 6 0 0, 0 1, 12A6, 6 0 0, 0 7, 18C9.61, 18 11.83, 16.33 12.65, 14H17V18H21V14H23V10H12.65Z" class="i pk" transform="translate(59.022343750000005, 48) scale(0.65)"></path></svg></g></g></svg>